<svg width="40" height="40" viewBox="0 0 40 40" fill="none" xmlns="http://www.w3.org/2000/svg">
<rect width="40" height="40" fill="white"/>
<path d="M6 12.8444V6.93333C6 6.6858 6.09833 6.4484 6.27337 6.27337C6.4484 6.09833 6.6858 6 6.93333 6H15.9556C16.2031 6 16.4405 6.09833 16.6155 6.27337C16.7906 6.4484 16.8889 6.6858 16.8889 6.93333V12.8444C16.8889 13.092 16.7906 13.3294 16.6155 13.5044C16.4405 13.6794 16.2031 13.7778 15.9556 13.7778H6.93333C6.6858 13.7778 6.4484 13.6794 6.27337 13.5044C6.09833 13.3294 6 13.092 6 12.8444V12.8444ZM23.1111 33.0667V27.1556C23.1111 26.908 23.2094 26.6706 23.3845 26.4956C23.5595 26.3206 23.7969 26.2222 24.0444 26.2222H33.0667C33.3142 26.2222 33.5516 26.3206 33.7266 26.4956C33.9017 26.6706 34 26.908 34 27.1556V33.0667C34 33.3142 33.9017 33.5516 33.7266 33.7266C33.5516 33.9017 33.3142 34 33.0667 34H24.0444C23.7969 34 23.5595 33.9017 23.3845 33.7266C23.2094 33.5516 23.1111 33.3142 23.1111 33.0667V33.0667ZM23.1111 20.6222V6.93333C23.1111 6.6858 23.2094 6.4484 23.3845 6.27337C23.5595 6.09833 23.7969 6 24.0444 6H33.0667C33.3142 6 33.5516 6.09833 33.7266 6.27337C33.9017 6.4484 34 6.6858 34 6.93333V20.6222C34 20.8698 33.9017 21.1072 33.7266 21.2822C33.5516 21.4572 33.3142 21.5556 33.0667 21.5556H24.0444C23.7969 21.5556 23.5595 21.4572 23.3845 21.2822C23.2094 21.1072 23.1111 20.8698 23.1111 20.6222V20.6222ZM6 33.0667V19.3778C6 19.1302 6.09833 18.8928 6.27337 18.7178C6.4484 18.5428 6.6858 18.4444 6.93333 18.4444H15.9556C16.2031 18.4444 16.4405 18.5428 16.6155 18.7178C16.7906 18.8928 16.8889 19.1302 16.8889 19.3778V33.0667C16.8889 33.3142 16.7906 33.5516 16.6155 33.7266C16.4405 33.9017 16.2031 34 15.9556 34H6.93333C6.6858 34 6.4484 33.9017 6.27337 33.7266C6.09833 33.5516 6 33.3142 6 33.0667V33.0667Z" stroke="#EB7100" stroke-width="2.4"/>
</svg>
