<svg width="40" height="40" viewBox="0 0 40 40" fill="none" xmlns="http://www.w3.org/2000/svg">
<rect width="40" height="40" fill="white"/>
<mask id="path-1-inside-1_228_325" fill="white">
<path d="M4.16533 15.5336C2.78628 14.7858 2.76586 12.8138 4.12912 12.0375L19.0113 3.5635C19.6248 3.21417 20.377 3.21417 20.9906 3.5635L35.8727 12.0375C37.236 12.8138 37.2156 14.7858 35.8365 15.5336L20.9543 23.6042C20.3596 23.9267 19.6422 23.9267 19.0475 23.6042L4.16533 15.5336Z"/>
</mask>
<path d="M20.9906 3.5635L19.803 5.6491L20.9906 3.5635ZM35.8727 12.0375L34.6852 14.1231L35.8727 12.0375ZM4.16533 15.5336L3.02123 17.6434L4.16533 15.5336ZM34.6924 13.4239L19.8102 21.4944L22.0984 25.7139L36.9806 17.6434L34.6924 13.4239ZM20.1916 21.4944L5.30944 13.4239L3.02123 17.6434L17.9034 25.7139L20.1916 21.4944ZM5.31668 14.1231L20.1988 5.6491L17.8237 1.47791L2.94157 9.95192L5.31668 14.1231ZM19.803 5.6491L34.6852 14.1231L37.0603 9.95192L22.1781 1.4779L19.803 5.6491ZM20.1988 5.6491C20.0761 5.71897 19.9257 5.71897 19.803 5.6491L22.1781 1.4779C20.8284 0.709363 19.1735 0.709366 17.8237 1.47791L20.1988 5.6491ZM19.8102 21.4944C19.9292 21.4299 20.0727 21.4299 20.1916 21.4944L17.9034 25.7139C19.2118 26.4234 20.7901 26.4234 22.0984 25.7139L19.8102 21.4944ZM36.9806 17.6434C40.0145 15.9981 40.0595 11.6597 37.0603 9.95192L34.6852 14.1231C34.4125 13.9679 34.4166 13.5735 34.6924 13.4239L36.9806 17.6434ZM5.30944 13.4239C5.58524 13.5735 5.58933 13.9679 5.31668 14.1231L2.94157 9.95192C-0.057619 11.6597 -0.0126768 15.9981 3.02123 17.6434L5.30944 13.4239Z" fill="#EB7100" mask="url(#path-1-inside-1_228_325)"/>
<path d="M35.7056 28.4823L36.2776 29.5372L35.7056 28.4823ZM20.9524 36.4829L21.5244 37.5378L20.9524 36.4829ZM19.0455 36.4829L18.4735 37.5378L18.4735 37.5378L19.0455 36.4829ZM4.29334 28.4828L4.86539 27.428H4.86539L4.29334 28.4828ZM4.31646 24.9542L3.75829 23.892L4.31646 24.9542ZM35.6829 24.9539L36.2413 23.8918V23.8918L35.6829 24.9539ZM35.1335 27.4274L20.3803 35.428L21.5244 37.5378L36.2776 29.5372L35.1335 27.4274ZM19.6176 35.428L4.86539 27.428L3.72129 29.5377L18.4735 37.5378L19.6176 35.428ZM4.87464 26.0165L8.42098 24.1531L7.30463 22.0285L3.75829 23.892L4.87464 26.0165ZM31.5808 24.153L35.1245 26.0161L36.2413 23.8918L32.6977 22.0287L31.5808 24.153ZM20.3803 35.428C20.1425 35.557 19.8555 35.557 19.6176 35.428L18.4735 37.5378C19.425 38.0538 20.5729 38.0538 21.5244 37.5378L20.3803 35.428ZM36.2776 29.5372C38.5267 28.3175 38.5059 25.0824 36.2413 23.8918L35.1245 26.0161C35.6906 26.3137 35.6958 27.1225 35.1335 27.4274L36.2776 29.5372ZM4.86539 27.428C4.30304 27.123 4.30835 26.3141 4.87464 26.0165L3.75829 23.892C1.4931 25.0822 1.4719 28.3179 3.72129 29.5377L4.86539 27.428Z" fill="#EB7100"/>
<path d="M35.7056 21.2701L36.2776 22.325L35.7056 21.2701ZM20.9524 29.2707L21.5244 30.3256L20.9524 29.2707ZM19.0455 29.2707L18.4735 30.3256L18.4735 30.3256L19.0455 29.2707ZM4.29334 21.2707L4.86539 20.2158H4.86539L4.29334 21.2707ZM4.31646 17.7421L3.75829 16.6798L4.31646 17.7421ZM35.6829 17.7418L36.2413 16.6796V16.6796L35.6829 17.7418ZM35.1335 20.2153L20.3803 28.2159L21.5244 30.3256L36.2776 22.325L35.1335 20.2153ZM19.6176 28.2159L4.86539 20.2158L3.72129 22.3255L18.4735 30.3256L19.6176 28.2159ZM4.87464 18.8044L8.42098 16.9409L7.30463 14.8164L3.75829 16.6798L4.87464 18.8044ZM31.5808 16.9408L35.1245 18.8039L36.2413 16.6796L32.6977 14.8165L31.5808 16.9408ZM20.3803 28.2159C20.1425 28.3449 19.8555 28.3449 19.6176 28.2159L18.4735 30.3256C19.425 30.8416 20.5729 30.8416 21.5244 30.3256L20.3803 28.2159ZM36.2776 22.325C38.5267 21.1053 38.5059 17.8703 36.2413 16.6796L35.1245 18.8039C35.6906 19.1016 35.6958 19.9103 35.1335 20.2153L36.2776 22.325ZM4.86539 20.2158C4.30304 19.9108 4.30835 19.1019 4.87464 18.8044L3.75829 16.6798C1.4931 17.87 1.4719 21.1057 3.72129 22.3255L4.86539 20.2158Z" fill="#EB7100"/>
</svg>
