<svg width="40" height="40" viewBox="0 0 40 40" fill="none" xmlns="http://www.w3.org/2000/svg">
<rect width="40" height="40" fill="white"/>
<path d="M37 20.2V8.4C37 7.49826 36.6418 6.63346 36.0042 5.99584C35.3665 5.35821 34.5017 5 33.6 5H6.4C5.49826 5 4.63346 5.35821 3.99584 5.99584C3.35821 6.63346 3 7.49826 3 8.4V29.2C3 30.1017 3.35821 30.9665 3.99584 31.6042C4.63346 32.2418 5.49826 32.6 6.4 32.6H17" stroke="#EB7100" stroke-width="2.4"/>
<path d="M3 11.8003H37" stroke="#EB7100" stroke-width="2.4" stroke-linecap="round" stroke-linejoin="round"/>
<path d="M36 35L30.7059 29.7059M32.8235 24.4118C32.8235 25.3851 32.6318 26.3489 32.2593 27.2481C31.8869 28.1474 31.3409 28.9644 30.6527 29.6527C29.9644 30.3409 29.1474 30.8869 28.2481 31.2593C27.3489 31.6318 26.3851 31.8235 25.4118 31.8235C24.4384 31.8235 23.4746 31.6318 22.5754 31.2593C21.6762 30.8869 20.8591 30.3409 20.1709 29.6527C19.4826 28.9644 18.9367 28.1474 18.5642 27.2481C18.1917 26.3489 18 25.3851 18 24.4118C18 22.446 18.7809 20.5608 20.1709 19.1709C21.5608 17.7809 23.446 17 25.4118 17C27.3775 17 29.2627 17.7809 30.6527 19.1709C32.0426 20.5608 32.8235 22.446 32.8235 24.4118Z" stroke="#EB7100" stroke-width="2.2" stroke-linecap="round" stroke-linejoin="round"/>
<path d="M28 23L24.5 26.6L23 25.0571" stroke="#EB7100" stroke-width="1.7" stroke-linecap="round" stroke-linejoin="round"/>
</svg>
